<svg xmlns="http://www.w3.org/2000/svg" width="16" height="16" viewBox="0 0 16 16" class="euiIcon eui-alignMiddle css-61rd3k-euiIcon-m-isLoaded" role="img" data-icon-type="indexClose" data-is-loaded="true" aria-hidden="true"><path d="M12 2H2v11h6v1H1V1h12v6h-1V2ZM5 5h5.999V4H5v1ZM3 5V4h1v1H3Zm2 3V7h3v1H5ZM3 8V7h1v1H3Zm2 3v-1h2v1H5Zm5.5-1.207L9.086 8.379l-.707.707L9.793 10.5l-1.414 1.414.707.707 1.414-1.414 1.414 1.414.707-.707-1.414-1.414 1.414-1.414-.707-.707L10.5 9.793ZM3 11v-1h1v1H3Zm7.5-5a4.5 4.5 0 1 1 0 9 4.5 4.5 0 0 1 0-9Z"></path></svg>