<svg width="16" height="16" viewBox="0 0 16 16" fill="none" xmlns="http://www.w3.org/2000/svg">
<path fill-rule="evenodd" clip-rule="evenodd" d="M5.875 3H2.875L2.875 6H5.875V3ZM2.875 2C2.32272 2 1.875 2.44772 1.875 3V6C1.875 6.55228 2.32272 7 2.875 7H5.875C6.42728 7 6.875 6.55228 6.875 6V3C6.875 2.44772 6.42728 2 5.875 2H2.875Z" fill="#343741"/>
<path fill-rule="evenodd" clip-rule="evenodd" d="M5.875 10H2.875L2.875 13H5.875V10ZM2.875 9C2.32272 9 1.875 9.44772 1.875 10V13C1.875 13.5523 2.32272 14 2.875 14H5.875C6.42728 14 6.875 13.5523 6.875 13V10C6.875 9.44772 6.42728 9 5.875 9H2.875Z" fill="#343741"/>
<path fill-rule="evenodd" clip-rule="evenodd" d="M12.875 3H9.875V6H12.875V3ZM9.875 2C9.32272 2 8.875 2.44772 8.875 3V6C8.875 6.55228 9.32272 7 9.875 7H12.875C13.4273 7 13.875 6.55228 13.875 6V3C13.875 2.44772 13.4273 2 12.875 2H9.875Z" fill="#343741"/>
<path fill-rule="evenodd" clip-rule="evenodd" d="M12.875 10H9.875V13H12.875V10ZM9.875 9C9.32272 9 8.875 9.44772 8.875 10V13C8.875 13.5523 9.32272 14 9.875 14H12.875C13.4273 14 13.875 13.5523 13.875 13V10C13.875 9.44772 13.4273 9 12.875 9H9.875Z" fill="#343741"/>
</svg>