<svg xmlns="http://www.w3.org/2000/svg" width="16" height="16" viewBox="0 0 16 16" class="euiIcon eui-alignMiddle css-61rd3k-euiIcon-m-isLoaded" role="img" data-icon-type="timelineWithArrow" data-is-loaded="true" aria-hidden="true"><path fill-rule="evenodd" d="M7.854 4.854A.5.5 0 0 1 7 4.5V4H6a1 1 0 0 1-1-1V1a1 1 0 0 1 1-1h3a1 1 0 0 1 1 1v2a1 1 0 0 1-1 1H8v.5a.5.5 0 0 1-.146.354ZM6 3V1h3v2H6ZM2.146 9.146A.5.5 0 0 0 2 9.5v.5H1a1 1 0 0 0-1 1v2a1 1 0 0 0 1 1h3a1 1 0 0 0 1-1v-2a1 1 0 0 0-1-1H3v-.5a.5.5 0 0 0-.854-.354ZM4 13v-2H1v2h3ZM11.5 15a4.5 4.5 0 1 0 0-9 4.5 4.5 0 0 0 0 9Zm.354-6.854 2 2a.5.5 0 0 1 0 .708l-2 2a.5.5 0 0 1-.707-.708L12.293 11H9.5a.5.5 0 0 1 0-1h2.793l-1.146-1.146a.5.5 0 1 1 .707-.708ZM8.337 6H3.915a1.5 1.5 0 0 0-2.83 0H.5a.5.5 0 0 0 0 1h.585a1.5 1.5 0 0 0 2.83 0h3.342c.314-.38.677-.716 1.08-1ZM2 6.5a.5.5 0 1 1 1 0 .5.5 0 0 1-1 0Z"></path></svg>